<svg width="110" height="34" viewBox="0 0 110 34" fill="none" xmlns="http://www.w3.org/2000/svg">
<g id="Frame" clip-path="url(#clip0_134_916)">
<g id="Group">
<path id="Vector" d="M106.871 0H3.12918C1.39893 0 0 1.39676 0 3.12432V30.8757C0 32.6032 1.39893 34 3.12918 34H106.871C108.601 34 110 32.6032 110 30.8757V3.12432C110 1.39676 108.601 0 106.871 0Z" fill="black"/>
<g id="Group_2">
<path id="Vector_2" d="M24.2604 17.2022C24.2236 14.5558 26.4324 13.2693 26.5428 13.1958C25.2912 11.3947 23.3768 11.1374 22.6774 11.1006C21.0576 10.9168 19.4746 12.0563 18.6647 12.0563C17.8179 12.0563 16.5295 11.1006 15.1673 11.1374C13.4003 11.1741 11.7436 12.2033 10.8233 13.7839C8.94579 17.0185 10.3447 21.7601 12.1486 24.3698C13.0321 25.6563 14.0997 27.0898 15.4619 27.0163C16.7872 26.9428 17.3025 26.1709 18.9224 26.1709C20.5422 26.1709 20.9839 27.0163 22.3829 26.9795C23.8186 26.9428 24.739 25.6931 25.5857 24.4066C26.6165 22.9363 27.0214 21.5028 27.0582 21.4293C27.0582 21.4293 24.2972 20.3633 24.2604 17.2022Z" fill="white"/>
<path id="Vector_3" d="M21.6098 9.37308C22.3461 8.45416 22.8246 7.24118 22.6774 5.99146C21.6466 6.02821 20.3213 6.72659 19.585 7.60875C18.9224 8.38064 18.3333 9.66713 18.4806 10.8433C19.6586 10.9536 20.8735 10.2552 21.6098 9.37308Z" fill="white"/>
</g>
<g id="Group_3">
<path id="Vector_4" d="M43.6613 26.8324H41.7838L40.753 23.6346H37.1821L36.2249 26.8324H34.421L37.9552 15.8789H40.1272L43.6613 26.8324ZM40.4585 22.2746L39.5382 19.4076C39.4277 19.1135 39.2436 18.4151 38.9859 17.3492H38.9491C38.8387 17.827 38.6546 18.4886 38.4337 19.4076L37.5134 22.2746H40.4585Z" fill="white"/>
<path id="Vector_5" d="M52.7175 22.7892C52.7175 24.1492 52.3494 25.1784 51.6131 25.987C50.9505 26.6854 50.1406 27.0162 49.1834 27.0162C48.1526 27.0162 47.3795 26.6487 46.9378 25.9135H46.9009V30.067H45.1339V21.5395C45.1339 20.6941 45.0971 19.8487 45.0602 18.9297H46.6064L46.7169 20.1795H46.7537C47.3427 19.2238 48.2262 18.7827 49.4043 18.7827C50.3246 18.7827 51.0977 19.1503 51.7236 19.8854C52.423 20.6206 52.7175 21.5762 52.7175 22.7892ZM50.9137 22.8627C50.9137 22.0908 50.7296 21.466 50.3983 20.9514C50.0301 20.4368 49.5147 20.1795 48.8889 20.1795C48.4471 20.1795 48.0422 20.3265 47.7108 20.6206C47.3427 20.9146 47.1218 21.2822 47.0114 21.76C46.9746 21.9806 46.9378 22.1643 46.9378 22.3114V23.6346C46.9378 24.2227 47.1218 24.7006 47.4531 25.1049C47.8213 25.5092 48.2631 25.693 48.8153 25.693C49.4779 25.693 49.9933 25.4357 50.3614 24.9211C50.7296 24.3697 50.9137 23.6714 50.9137 22.8627Z" fill="white"/>
<path id="Vector_6" d="M61.8106 22.7892C61.8106 24.1492 61.4424 25.1784 60.7062 25.987C60.0435 26.6854 59.2336 27.0162 58.2764 27.0162C57.2457 27.0162 56.4726 26.6487 56.0308 25.9135H55.994V30.067H54.2269V21.5395C54.2269 20.6941 54.1901 19.8487 54.1533 18.9297H55.6995L55.8099 20.1795H55.8467C56.4357 19.2238 57.3193 18.7827 58.4973 18.7827C59.4177 18.7827 60.1908 19.1503 60.8166 19.8854C61.4793 20.6206 61.8106 21.5762 61.8106 22.7892ZM60.0067 22.8627C60.0067 22.0908 59.8226 21.466 59.4913 20.9514C59.1232 20.4368 58.6078 20.1795 57.9819 20.1795C57.5402 20.1795 57.172 20.3265 56.8039 20.6206C56.4358 20.9146 56.2149 21.2822 56.1044 21.76C56.0308 21.9806 56.0308 22.1643 56.0308 22.3114V23.6346C56.0308 24.2227 56.2149 24.7006 56.5462 25.1049C56.9143 25.5092 57.3561 25.693 57.9083 25.693C58.571 25.693 59.0864 25.4357 59.4545 24.9211C59.8226 24.3697 60.0067 23.6714 60.0067 22.8627Z" fill="white"/>
<path id="Vector_7" d="M71.9712 23.7448C71.9712 24.6637 71.6399 25.4356 71.0141 26.0237C70.3146 26.6486 69.3206 26.9794 68.0321 26.9794C66.8541 26.9794 65.8969 26.7589 65.1975 26.281L65.6024 24.8107C66.3755 25.2886 67.2222 25.5091 68.1426 25.5091C68.8052 25.5091 69.3206 25.3621 69.6888 25.068C70.0569 24.774 70.241 24.3697 70.241 23.8551C70.241 23.414 70.0937 23.0464 69.7992 22.7156C69.5047 22.4216 68.9893 22.1275 68.2898 21.8702C66.3755 21.1718 65.4183 20.1059 65.4183 18.7459C65.4183 17.8637 65.7497 17.0918 66.4123 16.5405C67.075 15.9524 67.9953 15.6951 69.0997 15.6951C70.0937 15.6951 70.9404 15.8789 71.6031 16.2097L71.1613 17.6432C70.5355 17.3124 69.836 17.1286 69.0629 17.1286C68.4371 17.1286 67.9585 17.2756 67.6272 17.5697C67.3327 17.827 67.1854 18.1578 67.1854 18.5621C67.1854 19.0032 67.3695 19.3707 67.7008 19.628C67.9953 19.8853 68.5107 20.1794 69.2838 20.4734C70.241 20.841 70.9036 21.2821 71.3822 21.7967C71.7503 22.3848 71.9712 23.0097 71.9712 23.7448Z" fill="white"/>
<path id="Vector_8" d="M77.7878 20.2528H75.8367V24.0755C75.8367 25.0312 76.168 25.5458 76.8675 25.5458C77.162 25.5458 77.4565 25.509 77.6406 25.4723L77.6774 26.7955C77.3461 26.9425 76.8675 26.9793 76.3153 26.9793C75.6158 26.9793 75.0636 26.7587 74.6955 26.3544C74.2905 25.9501 74.1064 25.215 74.1064 24.2225V20.2528H72.9652V18.9296H74.1064V17.496L75.8367 16.9814V18.9296H77.7878V20.2528Z" fill="white"/>
<path id="Vector_9" d="M86.5127 22.826C86.5127 24.0389 86.1814 25.0314 85.4819 25.8033C84.7457 26.6119 83.7885 27.0162 82.5736 27.0162C81.3956 27.0162 80.4752 26.6487 79.8126 25.8768C79.1131 25.1049 78.7818 24.1492 78.7818 22.973C78.7818 21.76 79.1499 20.7308 79.8494 19.9589C80.5489 19.187 81.506 18.7827 82.7209 18.7827C83.8621 18.7827 84.8193 19.1503 85.5187 19.9222C86.1814 20.6941 86.5127 21.6497 86.5127 22.826ZM84.672 22.8627C84.672 22.1276 84.5248 21.5027 84.1934 20.9881C83.8253 20.3633 83.3099 20.0324 82.6104 20.0324C81.911 20.0324 81.3588 20.3633 80.9906 20.9881C80.6593 21.5027 80.5121 22.1276 80.5121 22.8995C80.5121 23.6346 80.6593 24.2595 80.9906 24.7741C81.3588 25.3989 81.911 25.7297 82.5736 25.7297C83.2363 25.7297 83.7517 25.3989 84.1566 24.7741C84.5248 24.2227 84.672 23.5979 84.672 22.8627Z" fill="white"/>
<path id="Vector_10" d="M92.2189 20.4734C92.0348 20.4367 91.8507 20.4367 91.6667 20.4367C91.0408 20.4367 90.5622 20.6572 90.2309 21.135C89.9364 21.5394 89.7892 22.054 89.7892 22.6788V26.8323H88.0221V21.4291C88.0221 20.5102 87.9853 19.7015 87.9485 18.9296H89.4946L89.5683 20.4367H89.6051C89.7892 19.9221 90.0837 19.5177 90.4886 19.1869C90.8936 18.8929 91.2985 18.7458 91.7403 18.7458C91.8875 18.7458 92.0348 18.7458 92.1821 18.7826V20.4734H92.2189Z" fill="white"/>
<path id="Vector_11" d="M100.06 22.4951C100.06 22.826 100.023 23.0833 99.9866 23.3038H94.7222C94.759 24.0757 94.9799 24.6638 95.4953 25.1049C95.9371 25.4724 96.5261 25.6562 97.2256 25.6562C97.9987 25.6562 98.6981 25.546 99.3608 25.2887L99.6185 26.5016C98.8822 26.8324 97.9987 26.9795 96.9679 26.9795C95.753 26.9795 94.7959 26.6119 94.0964 25.9135C93.3969 25.1784 93.0656 24.2227 93.0656 23.0097C93.0656 21.8335 93.3969 20.8411 94.0596 20.0324C94.7591 19.187 95.6794 18.7827 96.8206 18.7827C97.9619 18.7827 98.8086 19.187 99.3976 20.0324C99.8394 20.6941 100.06 21.5395 100.06 22.4951ZM98.3668 22.0541C98.3668 21.5395 98.2564 21.0984 98.0355 20.6941C97.741 20.2162 97.2624 19.9589 96.6366 19.9589C96.0475 19.9589 95.6058 20.2162 95.2376 20.6573C94.9431 21.0249 94.759 21.5027 94.7222 22.0173H98.3668V22.0541Z" fill="white"/>
</g>
<g id="Group_4">
<path id="Vector_12" d="M35.5254 6.72632H36.8507C38.3601 6.72632 39.2436 7.53497 39.2436 9.15226C39.2436 10.7696 38.3601 11.615 36.8876 11.615H35.5254V6.72632ZM36.7771 10.9533C37.7711 10.9533 38.3233 10.402 38.3233 9.18902C38.3233 7.97605 37.7711 7.46145 36.7771 7.46145H36.409V10.9533H36.7771Z" fill="white"/>
<path id="Vector_13" d="M40.0535 6.83672C40.0535 6.54267 40.2744 6.35889 40.6058 6.35889C40.9003 6.35889 41.158 6.54267 41.158 6.83672C41.158 7.13078 40.9371 7.31456 40.6058 7.31456C40.2744 7.31456 40.0535 7.09402 40.0535 6.83672ZM40.1272 7.93943H41.0107V11.6151H40.1272V7.93943Z" fill="white"/>
<path id="Vector_14" d="M41.747 11.2106L42.1519 10.6592C42.4833 10.9165 42.8146 11.0636 43.1827 11.0636C43.5877 11.0636 43.7718 10.8798 43.7718 10.6225C43.7718 10.3284 43.3668 10.1814 42.9619 10.0344C42.4833 9.85059 41.9311 9.55653 41.9311 8.96843C41.9311 8.34356 42.4465 7.86572 43.2932 7.86572C43.8086 7.86572 44.2135 8.08626 44.508 8.3068L44.1031 8.8214C43.8454 8.63761 43.5877 8.49059 43.2932 8.49059C42.925 8.49059 42.741 8.67437 42.741 8.89491C42.741 9.18897 43.1091 9.29924 43.5141 9.44626C44.0295 9.63005 44.5817 9.88734 44.5817 10.549C44.5817 11.1738 44.0663 11.6884 43.1459 11.6884C42.6305 11.7252 42.1151 11.5046 41.747 11.2106Z" fill="white"/>
<path id="Vector_15" d="M45.3547 7.93924H46.0542L46.1278 8.34356H46.1647C46.4592 8.08626 46.8641 7.86572 47.2691 7.86572C48.1894 7.86572 48.7048 8.60086 48.7048 9.74032C48.7048 10.99 47.9317 11.7252 47.1218 11.7252C46.7905 11.7252 46.4592 11.5782 46.1647 11.3209L46.2015 11.9457V13.1219H45.3179V7.93924H45.3547ZM47.8213 9.74032C47.8213 9.00518 47.5636 8.5641 47.0114 8.5641C46.7537 8.5641 46.496 8.71113 46.2015 8.96843V10.696C46.4592 10.9165 46.7169 10.99 46.9377 10.99C47.4531 11.0268 47.8213 10.5857 47.8213 9.74032Z" fill="white"/>
<path id="Vector_16" d="M49.3675 9.81383C49.3675 8.60086 50.2142 7.86572 51.1345 7.86572C52.0549 7.86572 52.9016 8.5641 52.9016 9.81383C52.9016 11.0268 52.0549 11.7619 51.1345 11.7619C50.1774 11.7252 49.3675 11.0268 49.3675 9.81383ZM51.9813 9.81383C51.9813 9.0787 51.6499 8.5641 51.0977 8.5641C50.5455 8.5641 50.2142 9.04194 50.2142 9.81383C50.2142 10.549 50.5455 11.0268 51.0977 11.0268C51.6499 11.0268 51.9813 10.549 51.9813 9.81383Z" fill="white"/>
<path id="Vector_17" d="M53.7115 7.93924H54.411L54.4846 8.45383H54.5214C54.8527 8.12302 55.2209 7.86572 55.7363 7.86572C56.5462 7.86572 56.8775 8.41707 56.8775 9.33599V11.6517H55.994V9.44626C55.994 8.8214 55.8099 8.60086 55.405 8.60086C55.0736 8.60086 54.8527 8.74789 54.5582 9.0787V11.6517H53.6747V7.93924H53.7115Z" fill="white"/>
<path id="Vector_18" d="M57.9451 6.91016L59.0495 5.58691L59.6386 6.17502L58.3501 7.35124L57.9451 6.91016ZM57.9451 7.93935H58.8287V11.615H57.9451V7.93935Z" fill="white"/>
<path id="Vector_19" d="M59.4545 7.93945H60.338L60.927 9.8508C61.0375 10.2184 61.1479 10.5859 61.2584 10.9535H61.2952C61.4056 10.5859 61.5161 10.2184 61.6265 9.8508L62.2155 7.93945H63.0622L61.8106 11.6151H60.743L59.4545 7.93945Z" fill="white"/>
<path id="Vector_20" d="M63.3568 9.81383C63.3568 8.60086 64.2035 7.86572 65.0502 7.86572C66.0442 7.86572 66.5596 8.60086 66.5596 9.63005C66.5596 9.77707 66.5596 9.96086 66.5228 10.0344H64.1667C64.2403 10.696 64.6453 11.0636 65.2711 11.0636C65.6024 11.0636 65.8601 10.9533 66.1178 10.8063L66.4123 11.3576C66.0442 11.5782 65.6024 11.7619 65.1606 11.7619C64.1299 11.7252 63.3568 11.0268 63.3568 9.81383ZM65.8233 9.44626C65.8233 8.89491 65.5656 8.52734 65.0502 8.52734C64.6084 8.52734 64.2403 8.85816 64.1667 9.44626H65.8233Z" fill="white"/>
<path id="Vector_21" d="M67.4063 10.6961V6.32202H68.2898V10.7328C68.2898 10.9534 68.4003 11.0269 68.4739 11.0269C68.5107 11.0269 68.5475 11.0269 68.6212 11.0269L68.7316 11.6885C68.6212 11.7253 68.4739 11.762 68.2898 11.762C67.6272 11.7253 67.4063 11.3577 67.4063 10.6961Z" fill="white"/>
<path id="Vector_22" d="M70.9404 7.93924H71.6399L71.7135 8.45383H71.7503C72.0817 8.12302 72.4498 7.86572 72.9652 7.86572C73.7751 7.86572 74.1064 8.41707 74.1064 9.33599V11.6517H73.2229V9.44626C73.2229 8.8214 73.0388 8.60086 72.6339 8.60086C72.3026 8.60086 72.0817 8.74789 71.7872 9.0787V11.6517H70.9036V7.93924H70.9404Z" fill="white"/>
<path id="Vector_23" d="M74.9532 10.6592C74.9532 9.85059 75.6158 9.44626 77.1252 9.29924C77.1252 8.89491 76.9411 8.5641 76.4625 8.5641C76.0944 8.5641 75.7631 8.71113 75.4317 8.93167L75.1004 8.34356C75.5054 8.08626 76.0208 7.86572 76.6098 7.86572C77.5301 7.86572 77.9719 8.41707 77.9719 9.44626V11.6149H77.2724L77.1988 11.2106H77.162C76.8307 11.5046 76.4625 11.7252 76.0208 11.7252C75.3949 11.7252 74.9532 11.2841 74.9532 10.6592ZM77.1252 10.6592V9.81383C76.1312 9.9241 75.7999 10.2182 75.7999 10.5857C75.7999 10.9165 76.0208 11.0636 76.3153 11.0636C76.6466 11.0636 76.8675 10.9165 77.1252 10.6592Z" fill="white"/>
</g>
</g>
</g>
<defs>
<clipPath id="clip0_134_916">
<rect width="110" height="34" fill="white"/>
</clipPath>
</defs>
</svg>
