<svg width="110" height="34" viewBox="0 0 110 34" fill="none" xmlns="http://www.w3.org/2000/svg">
<g id="Frame" clip-path="url(#clip0_134_894)">
<g id="Group">
<path id="Vector" d="M106.871 0H3.12918C1.39893 0 0 1.39676 0 3.12432V30.8757C0 32.6032 1.39893 34 3.12918 34H106.871C108.601 34 110 32.6032 110 30.8757V3.12432C110 1.39676 108.601 0 106.871 0Z" fill="black"/>
<path id="Vector_2" d="M56.2149 18.5253C54.2637 18.5253 52.7175 19.9956 52.7175 22.0172C52.7175 24.0389 54.3005 25.5091 56.2149 25.5091C58.166 25.5091 59.7122 24.0389 59.7122 22.0172C59.7122 19.9956 58.166 18.5253 56.2149 18.5253ZM56.2149 24.1491C55.1473 24.1491 54.2269 23.267 54.2269 22.0172C54.2269 20.7675 55.1473 19.8853 56.2149 19.8853C57.2825 19.8853 58.2028 20.7307 58.2028 22.0172C58.2028 23.267 57.2825 24.1491 56.2149 24.1491ZM48.5576 18.5253C46.6064 18.5253 45.0602 19.9956 45.0602 22.0172C45.0602 24.0389 46.6432 25.5091 48.5576 25.5091C50.5087 25.5091 52.0549 24.0389 52.0549 22.0172C52.0549 19.9956 50.5087 18.5253 48.5576 18.5253ZM48.5576 24.1491C47.49 24.1491 46.5696 23.267 46.5696 22.0172C46.5696 20.7675 47.49 19.8853 48.5576 19.8853C49.6252 19.8853 50.5455 20.7307 50.5455 22.0172C50.5455 23.267 49.6252 24.1491 48.5576 24.1491ZM39.4645 19.5913V21.0616H42.9987C42.8882 21.907 42.6305 22.4951 42.1888 22.9362C41.6734 23.4507 40.8635 24.0389 39.4645 24.0389C37.2925 24.0389 35.5622 22.2745 35.5622 20.1059C35.5622 17.9372 37.2557 16.1729 39.4645 16.1729C40.6426 16.1729 41.4893 16.6507 42.1519 17.2389L43.1827 16.2097C42.2992 15.3643 41.1212 14.7026 39.4645 14.7026C36.4826 14.7026 33.9424 17.1286 33.9424 20.1426C33.9424 23.1199 36.4458 25.5826 39.4645 25.5826C41.0843 25.5826 42.2992 25.068 43.2564 24.0756C44.2503 23.0832 44.5448 21.7232 44.5448 20.6205C44.5448 20.2897 44.508 19.9589 44.4712 19.7016H39.4645V19.5913ZM76.6834 20.7675C76.3889 19.9956 75.5054 18.5621 73.7015 18.5621C71.8976 18.5621 70.3882 19.9589 70.3882 22.054C70.3882 24.0021 71.8608 25.5459 73.8487 25.5459C75.4685 25.5459 76.3889 24.5534 76.757 24.0021L75.579 23.1934C75.174 23.7816 74.6218 24.1491 73.8487 24.1491C73.0756 24.1491 72.5234 23.7816 72.1553 23.0832L76.8307 21.1351L76.6834 20.7675ZM71.9344 21.907C71.8976 20.547 72.9652 19.8853 73.7751 19.8853C74.4009 19.8853 74.9163 20.1794 75.0636 20.6205L71.9344 21.907ZM68.1426 25.2886H69.6888V15.0334H68.1426V25.2886ZM65.5656 19.2972C65.2343 18.8929 64.5716 18.5253 63.7249 18.5253C61.9946 18.5253 60.3748 20.0691 60.3748 22.0172C60.3748 23.9653 61.9946 25.5091 63.7249 25.5091C64.5716 25.5091 65.2343 25.1416 65.5656 24.7005H65.6024V25.2151C65.6024 26.5383 64.903 27.2734 63.7249 27.2734C62.7677 27.2734 62.2155 26.6118 61.9578 26.0237L60.6325 26.5751C61.0007 27.494 62.0315 28.6334 63.7249 28.6334C65.5288 28.6334 67.0382 27.5675 67.0382 24.9945V18.7459H65.5656V19.2972ZM63.8722 24.1491C62.8046 24.1491 61.921 23.267 61.921 22.054C61.921 20.841 62.8046 19.9221 63.8722 19.9221C64.9029 19.9221 65.7497 20.8043 65.7497 22.054C65.7129 23.267 64.9029 24.1491 63.8722 24.1491ZM83.8989 15.0334H80.2175V25.2886H81.7637V21.4291H83.8989C85.5924 21.4291 87.2858 20.2161 87.2858 18.2313C87.2858 16.2464 85.5924 15.0334 83.8989 15.0334ZM83.9357 19.9956H81.7637V16.467H83.9357C85.077 16.467 85.7396 17.4226 85.7396 18.2313C85.7396 19.0399 85.077 19.9956 83.9357 19.9956ZM93.4337 18.5253C92.3293 18.5253 91.1881 19.0032 90.7095 20.1059L92.0716 20.6572C92.3661 20.1059 92.9183 19.9221 93.4706 19.9221C94.2805 19.9221 95.0535 20.3999 95.0904 21.2453V21.3189C94.7958 21.1718 94.2068 20.9145 93.5074 20.9145C92.0348 20.9145 90.5623 21.7232 90.5623 23.2302C90.5623 24.5902 91.7771 25.4724 93.1024 25.4724C94.1332 25.4724 94.6854 24.9945 95.0536 24.4799H95.0904V25.2886H96.5629V21.3556C96.5261 19.5178 95.164 18.5253 93.4337 18.5253ZM93.2497 24.1491C92.7343 24.1491 92.0348 23.8918 92.0348 23.267C92.0348 22.4583 92.9183 22.1643 93.6546 22.1643C94.3173 22.1643 94.6486 22.3113 95.0536 22.4951C94.9431 23.4507 94.1332 24.1491 93.2497 24.1491ZM101.938 18.7459L100.171 23.1934H100.134L98.2932 18.7459H96.6366L99.3608 24.9578L97.8146 28.4129H99.3976L103.631 18.7459H101.938ZM88.1325 25.2886H89.6787V15.0334H88.1325V25.2886Z" fill="white"/>
<g id="Group_2">
<path id="Vector_3" d="M8.79853 6.87356C8.57765 7.13086 8.43039 7.53518 8.43039 8.01302V26.1341C8.43039 26.6487 8.57765 27.0163 8.79853 27.2736L8.87216 27.3471L19.0328 17.2022V17.0919V16.9817L8.83534 6.80005L8.79853 6.87356Z" fill="#5BC9F4"/>
<path id="Vector_4" d="M22.4197 20.6205L19.0328 17.2389V17.1286V17.0183L22.4197 13.6367L22.4933 13.6735L26.506 15.9156C27.6473 16.5773 27.6473 17.6432 26.506 18.2681L22.4933 20.547L22.4197 20.6205Z" fill="url(#paint0_linear_134_894)"/>
<path id="Vector_5" d="M22.4933 20.5469L19.0328 17.0918L8.79853 27.3102C9.16667 27.7145 9.79251 27.7513 10.492 27.3469L22.4933 20.5469Z" fill="url(#paint1_linear_134_894)"/>
<path id="Vector_6" d="M22.4933 13.6368L10.492 6.83676C9.79251 6.43244 9.16667 6.46919 8.79853 6.87352L19.0328 17.0919L22.4933 13.6368Z" fill="url(#paint2_linear_134_894)"/>
</g>
<g id="Group_3">
<path id="Vector_7" d="M35.5254 6.91016H36.8507C38.3601 6.91016 39.2436 7.7188 39.2436 9.3361C39.2436 10.9534 38.3601 11.7988 36.8876 11.7988H35.5254V6.91016ZM36.7771 11.1004C37.7711 11.1004 38.3233 10.5491 38.3233 9.3361C38.3233 8.12313 37.7711 7.60854 36.7771 7.60854H36.409V11.1004H36.7771Z" fill="white"/>
<path id="Vector_8" d="M40.0536 6.9837C40.0536 6.68964 40.2744 6.50586 40.6058 6.50586C40.9003 6.50586 41.158 6.68964 41.158 6.9837C41.158 7.27775 40.9371 7.46153 40.6058 7.46153C40.2744 7.49829 40.0536 7.27775 40.0536 6.9837ZM40.1272 8.12316H41.0107V11.7988H40.1272V8.12316Z" fill="white"/>
<path id="Vector_9" d="M41.747 11.3944L42.1519 10.8431C42.4833 11.1004 42.8146 11.2474 43.1827 11.2474C43.5877 11.2474 43.7718 11.0636 43.7718 10.8063C43.7718 10.5123 43.3668 10.3652 42.9619 10.2182C42.4833 10.0344 41.9311 9.74037 41.9311 9.15226C41.9311 8.5274 42.4465 8.04956 43.2932 8.04956C43.8086 8.04956 44.2135 8.2701 44.508 8.49064L44.1031 9.00524C43.8454 8.82145 43.5877 8.67443 43.2932 8.67443C42.925 8.67443 42.741 8.85821 42.741 9.07875C42.741 9.3728 43.1091 9.48307 43.5141 9.6301C44.0295 9.81389 44.5817 10.0712 44.5817 10.7328C44.5817 11.3577 44.0663 11.8723 43.1459 11.8723C42.6305 11.909 42.1151 11.6885 41.747 11.3944Z" fill="white"/>
<path id="Vector_10" d="M45.3548 8.12307H46.0542L46.1278 8.5274H46.1647C46.4592 8.2701 46.8641 8.04956 47.2691 8.04956C48.1894 8.04956 48.7048 8.7847 48.7048 9.92416C48.7048 11.1739 47.9317 11.909 47.1218 11.909C46.7905 11.909 46.4592 11.762 46.1647 11.5047L46.2015 12.1296V13.3058H45.3179V8.12307H45.3548ZM47.8213 9.92416C47.8213 9.18902 47.5636 8.74794 47.0114 8.74794C46.7537 8.74794 46.496 8.89497 46.2015 9.15226V10.8798C46.4592 11.1004 46.7169 11.1739 46.9378 11.1739C47.4531 11.2106 47.8213 10.7696 47.8213 9.92416Z" fill="white"/>
<path id="Vector_11" d="M49.3675 9.99767C49.3675 8.7847 50.2142 8.04956 51.1345 8.04956C52.0549 8.04956 52.9016 8.74794 52.9016 9.99767C52.9016 11.2106 52.0549 11.9458 51.1345 11.9458C50.1774 11.909 49.3675 11.2106 49.3675 9.99767ZM51.9813 9.99767C51.9813 9.26253 51.6499 8.74794 51.0977 8.74794C50.5455 8.74794 50.2142 9.22578 50.2142 9.99767C50.2142 10.7696 50.5455 11.2106 51.0977 11.2106C51.6499 11.2106 51.9813 10.7328 51.9813 9.99767Z" fill="white"/>
<path id="Vector_12" d="M53.7115 8.12307H54.411L54.4846 8.63767H54.5214C54.8528 8.30686 55.2209 8.04956 55.7363 8.04956C56.5462 8.04956 56.8775 8.60091 56.8775 9.51983V11.8355H55.994V9.6301C55.994 9.00524 55.8099 8.7847 55.405 8.7847C55.0736 8.7847 54.8527 8.93172 54.5582 9.26253V11.8355H53.6747V8.12307H53.7115Z" fill="white"/>
<path id="Vector_13" d="M57.9451 7.094L59.0495 5.77075L59.6386 6.35886L58.3501 7.53508L57.9451 7.094ZM57.9451 8.12318H58.8287V11.7989H57.9451V8.12318Z" fill="white"/>
<path id="Vector_14" d="M59.4545 8.12329H60.338L60.927 10.0346C61.0375 10.4022 61.1479 10.7698 61.2584 11.1373H61.2952C61.4056 10.7698 61.5161 10.4022 61.6265 10.0346L62.2155 8.12329H63.0622L61.8106 11.799H60.743L59.4545 8.12329Z" fill="white"/>
<path id="Vector_15" d="M63.3568 9.99767C63.3568 8.7847 64.2035 8.04956 65.0502 8.04956C66.0442 8.04956 66.5596 8.7847 66.5596 9.81389C66.5596 9.99767 66.5596 10.1447 66.5228 10.2182H64.1667C64.2403 10.8798 64.6453 11.2474 65.2711 11.2474C65.6024 11.2474 65.8601 11.1371 66.1178 10.9901L66.4123 11.5415C66.0442 11.762 65.6024 11.9458 65.1606 11.9458C64.1299 11.909 63.3568 11.2106 63.3568 9.99767ZM65.8233 9.6301C65.8233 9.07875 65.5656 8.71118 65.0502 8.71118C64.6084 8.71118 64.2403 9.04199 64.1667 9.6301H65.8233Z" fill="white"/>
<path id="Vector_16" d="M67.4063 10.8799V6.50586H68.2898V10.9167C68.2898 11.1372 68.4003 11.2107 68.4739 11.2107C68.5107 11.2107 68.5475 11.2107 68.6212 11.2107L68.7316 11.8723C68.6212 11.9091 68.4739 11.9459 68.2898 11.9459C67.6272 11.9091 67.4063 11.5048 67.4063 10.8799Z" fill="white"/>
<path id="Vector_17" d="M70.9404 8.12307H71.6399L71.7135 8.63767H71.7503C72.0817 8.30686 72.4498 8.04956 72.9652 8.04956C73.7751 8.04956 74.1064 8.60091 74.1064 9.51983V11.8355H73.2229V9.6301C73.2229 9.00524 73.0388 8.7847 72.6339 8.7847C72.3026 8.7847 72.0817 8.93172 71.7872 9.26253V11.8355H70.9036V8.12307H70.9404Z" fill="white"/>
<path id="Vector_18" d="M74.9532 10.8431C74.9532 10.0344 75.6158 9.6301 77.1252 9.48307C77.1252 9.07875 76.9411 8.74794 76.4625 8.74794C76.0944 8.74794 75.7631 8.93172 75.4317 9.11551L75.1004 8.5274C75.5054 8.2701 76.0208 8.04956 76.6098 8.04956C77.5301 8.04956 77.9719 8.60091 77.9719 9.6301V11.7987H77.2724L77.1988 11.3944H77.162C76.8307 11.6885 76.4625 11.909 76.0208 11.909C75.3949 11.909 74.9532 11.4679 74.9532 10.8431ZM77.1252 10.8431V9.99767C76.1312 10.1079 75.7999 10.402 75.7999 10.7696C75.7999 11.1004 76.0208 11.2474 76.3153 11.2474C76.6466 11.2474 76.8675 11.1004 77.1252 10.8431Z" fill="white"/>
</g>
</g>
</g>
<defs>
<linearGradient id="paint0_linear_134_894" x1="25.7606" y1="17.0972" x2="5.88452" y2="17.0972" gradientUnits="userSpaceOnUse">
<stop stop-color="#FEE000"/>
<stop offset="0.1941" stop-color="#FCCF0B"/>
<stop offset="0.5469" stop-color="#FAB318"/>
<stop offset="0.8279" stop-color="#F9A21B"/>
<stop offset="1" stop-color="#F99B1C"/>
</linearGradient>
<linearGradient id="paint1_linear_134_894" x1="20.6025" y1="18.9792" x2="1.93719" y2="37.6735" gradientUnits="userSpaceOnUse">
<stop stop-color="#EF4547"/>
<stop offset="1" stop-color="#C6186D"/>
</linearGradient>
<linearGradient id="paint2_linear_134_894" x1="1.82487" y1="-3.5339" x2="17.0646" y2="11.7295" gradientUnits="userSpaceOnUse">
<stop stop-color="#279E6F"/>
<stop offset="0.3168" stop-color="#4DAB6D"/>
<stop offset="0.7398" stop-color="#6ABA6A"/>
<stop offset="1" stop-color="#74C169"/>
</linearGradient>
<clipPath id="clip0_134_894">
<rect width="110" height="34" fill="white"/>
</clipPath>
</defs>
</svg>
