<svg width="36" height="36" viewBox="0 0 36 36" fill="none" xmlns="http://www.w3.org/2000/svg">
<g id="&#240;&#159;&#166;&#134; icon &#34;instagram&#34;">
<path id="Vector" d="M18.2418 8.64069C13.2029 8.64069 9.13625 12.7073 9.13625 17.7462C9.13625 22.7851 13.2029 26.8517 18.2418 26.8517C23.2807 26.8517 27.3473 22.7851 27.3473 17.7462C27.3473 12.7073 23.2807 8.64069 18.2418 8.64069ZM18.2418 23.6641C14.9831 23.6641 12.3238 21.0048 12.3238 17.7462C12.3238 14.4876 14.9831 11.8283 18.2418 11.8283C21.5004 11.8283 24.1597 14.4876 24.1597 17.7462C24.1597 21.0048 21.5004 23.6641 18.2418 23.6641ZM27.7202 6.14566C26.5437 6.14566 25.5937 7.09572 25.5937 8.27221C25.5937 9.44869 26.5437 10.3988 27.7202 10.3988C28.8967 10.3988 29.8468 9.45313 29.8468 8.27221C29.8471 7.99285 29.7923 7.71616 29.6856 7.458C29.5789 7.19984 29.4222 6.96527 29.2247 6.76773C29.0272 6.57019 28.7926 6.41357 28.5344 6.30682C28.2763 6.20008 27.9996 6.14531 27.7202 6.14566ZM35.9911 17.7462C35.9911 15.2956 36.0133 12.8671 35.8757 10.4209C35.738 7.57964 35.0899 5.05797 33.0122 2.98026C30.93 0.89811 28.4128 0.254375 25.5715 0.116749C23.1208 -0.0208773 20.6924 0.00132052 18.2462 0.00132052C15.7956 0.00132052 13.3671 -0.0208773 10.921 0.116749C8.07964 0.254375 5.55797 0.902549 3.48026 2.98026C1.39811 5.06241 0.754375 7.57964 0.616749 10.4209C0.479123 12.8716 0.501321 15.3 0.501321 17.7462C0.501321 20.1924 0.479123 22.6253 0.616749 25.0715C0.754375 27.9128 1.40255 30.4344 3.48026 32.5122C5.56241 34.5943 8.07964 35.238 10.921 35.3757C13.3716 35.5133 15.8 35.4911 18.2462 35.4911C20.6968 35.4911 23.1253 35.5133 25.5715 35.3757C28.4128 35.238 30.9345 34.5899 33.0122 32.5122C35.0943 30.43 35.738 27.9128 35.8757 25.0715C36.0177 22.6253 35.9911 20.1968 35.9911 17.7462ZM32.0843 28.2147C31.7602 29.0227 31.3695 29.6264 30.7436 30.248C30.1176 30.874 29.5182 31.2646 28.7102 31.5887C26.375 32.5166 20.83 32.3079 18.2418 32.3079C15.6535 32.3079 10.1041 32.5166 7.76887 31.5932C6.96087 31.2691 6.35709 30.8784 5.73555 30.2524C5.10958 29.6265 4.7189 29.0271 4.39481 28.2191C3.47138 25.8795 3.68004 20.3345 3.68004 17.7462C3.68004 15.158 3.47138 9.60851 4.39481 7.27331C4.7189 6.46531 5.10958 5.86153 5.73555 5.23999C6.36153 4.61845 6.96087 4.22333 7.76887 3.89925C10.1041 2.97582 15.6535 3.18448 18.2418 3.18448C20.83 3.18448 26.3795 2.97582 28.7147 3.89925C29.5227 4.22333 30.1265 4.61402 30.748 5.23999C31.374 5.86597 31.7647 6.46531 32.0887 7.27331C33.0122 9.60851 32.8035 15.158 32.8035 17.7462C32.8035 20.3345 33.0122 25.8795 32.0843 28.2147Z" fill="white"/>
</g>
</svg>
