<svg width="43" height="42" viewBox="0 0 43 42" fill="none" xmlns="http://www.w3.org/2000/svg">
<g id="Social media icon">
<path id="Vector" d="M21.4785 3C23.9731 3 26.31 3.45998 28.4892 4.37993C30.6685 5.29988 32.5753 6.54739 34.2097 8.12246C35.8441 9.69753 37.1344 11.5444 38.0806 13.6631C39.0269 15.7818 39.5 18.0538 39.5 20.4791C39.5 22.9044 39.0269 25.1764 38.0806 27.2951C37.1344 29.4138 35.8441 31.2676 34.2097 32.8566C32.5753 34.4456 30.6685 35.7001 28.4892 36.6201C26.31 37.54 23.9731 38 21.4785 38C18.9839 38 16.647 37.54 14.4677 36.6201C12.2885 35.7001 10.3889 34.4456 8.76882 32.8566C7.14875 31.2676 5.86559 29.4138 4.91935 27.2951C3.97312 25.1764 3.5 22.9044 3.5 20.4791C3.5 18.0538 3.97312 15.7818 4.91935 13.6631C5.86559 11.5444 7.14875 9.69753 8.76882 8.12246C10.3889 6.54739 12.2885 5.29988 14.4677 4.37993C16.647 3.45998 18.9839 3 21.4785 3ZM15.8871 16.1302H11.371V30.3477H15.8871V16.1302ZM13.6075 15.0012C14.2384 15.0012 14.776 14.7921 15.2204 14.374C15.6649 13.9558 15.8871 13.4401 15.8871 12.8268C15.8871 12.2135 15.6649 11.6977 15.2204 11.2796C14.776 10.8614 14.2384 10.6523 13.6075 10.6523C12.9767 10.6523 12.4462 10.8614 12.0161 11.2796C11.586 11.6977 11.371 12.2135 11.371 12.8268C11.371 13.4401 11.586 13.9558 12.0161 14.374C12.4462 14.7921 12.9767 15.0012 13.6075 15.0012ZM31.629 22.1099C31.629 21.1063 31.3423 20.1237 30.7688 19.1619C30.1953 18.2001 29.4498 17.4683 28.5323 16.9665C27.7007 16.5205 26.733 16.2836 25.629 16.2557C24.5251 16.2278 23.5143 16.409 22.5968 16.7993V16.1302H18.1237V30.3477H22.5968V21.6499L24.4892 20.7718C24.7186 20.6603 25.0269 20.6045 25.414 20.6045C25.8011 20.6045 26.1093 20.6742 26.3387 20.8136C26.5108 20.8973 26.6828 21.0785 26.8548 21.3572C27.0269 21.636 27.1129 21.8869 27.1129 22.1099V30.3477H31.629V22.1099Z" fill="white"/>
</g>
</svg>
