<svg width="36" height="36" viewBox="0 0 36 36" fill="none" xmlns="http://www.w3.org/2000/svg">
<g id="Group 42">
<g id="&#240;&#159;&#166;&#134; icon &#34;whats app&#34;">
<path id="Vector" d="M26.2285 21.2281C25.7967 21.0063 23.6458 19.9526 23.2457 19.81C22.8456 19.6595 22.5525 19.5882 22.2633 20.0318C21.9702 20.4715 21.1383 21.45 20.8769 21.747C20.6233 22.0402 20.3659 22.0758 19.9341 21.858C17.3672 20.5745 15.6837 19.5684 13.9922 16.6648C13.5446 15.8923 14.4399 15.9478 15.2757 14.2801C15.4183 13.987 15.347 13.7374 15.2361 13.5156C15.1252 13.2938 14.2537 11.1468 13.8893 10.2714C13.5367 9.41969 13.1723 9.53853 12.9069 9.52268C12.6533 9.50684 12.3642 9.50684 12.071 9.50684C11.7779 9.50684 11.3065 9.61775 10.9064 10.0495C10.5064 10.4892 9.37741 11.5469 9.37741 13.6939C9.37741 15.8408 10.9421 17.9205 11.156 18.2136C11.3778 18.5068 14.2339 22.9116 18.619 24.8091C21.3918 26.0054 22.4772 26.1084 23.8636 25.9024C24.7074 25.7756 26.4464 24.8487 26.8068 23.8227C27.1673 22.8007 27.1673 21.9253 27.0603 21.7431C26.9534 21.549 26.6603 21.4381 26.2285 21.2281Z" fill="white"/>
<path id="Vector_2" d="M34.6144 10.8696C33.7191 8.74244 32.4357 6.83313 30.7997 5.19318C29.1637 3.55719 27.2544 2.26979 25.1232 1.37851C22.9446 0.463464 20.6312 0 18.2465 0H18.1673C15.7668 0.0118837 13.4416 0.487232 11.255 1.42208C9.14363 2.32524 7.25016 3.60868 5.63002 5.24467C4.00988 6.88066 2.73832 8.78205 1.85893 10.9013C0.947844 13.0958 0.488341 15.429 0.500225 17.8295C0.512108 20.5786 1.16967 23.3079 2.40162 25.748V31.7691C2.40162 32.7752 3.21763 33.5912 4.22378 33.5912H10.2488C12.6889 34.8232 15.4182 35.4808 18.1673 35.4926H18.2505C20.6233 35.4926 22.9248 35.0331 25.0916 34.1339C27.2108 33.2506 29.1162 31.983 30.7482 30.3628C32.3842 28.7427 33.6716 26.8492 34.5708 24.7379C35.5056 22.5513 35.981 20.226 35.9929 17.8255C36.0047 15.4132 35.5373 13.0721 34.6144 10.8696ZM28.6289 28.2198C25.8521 30.9689 22.1682 32.4821 18.2465 32.4821H18.1792C15.7906 32.4702 13.4178 31.876 11.3223 30.759L10.9896 30.5807H5.41215V25.0033L5.2339 24.6706C4.11683 22.5751 3.52264 20.2023 3.51076 17.8137C3.49492 13.8643 5.00415 10.1566 7.77305 7.36393C10.538 4.57126 14.2338 3.02638 18.1832 3.01054H18.2505C20.2311 3.01054 22.1523 3.39478 23.9626 4.15533C25.7293 4.89608 27.3138 5.96165 28.6765 7.32432C30.0352 8.68302 31.1047 10.2715 31.8455 12.0382C32.6139 13.8683 32.9982 15.8093 32.9902 17.8137C32.9665 21.759 31.4176 25.4549 28.6289 28.2198Z" fill="white"/>
</g>
</g>
</svg>
