<svg xmlns="http://www.w3.org/2000/svg"  viewBox="0 0 20 20" fill="none">
  <path d="M3.00881 3.00881C3.13222 1.32652 4.5362 0 6.25 0H15.25C17.8734 0 20 2.12665 20 4.75V10.75C20 12.4638 18.6735 13.8678 16.9912 13.9912C16.8678 15.6735 15.4638 17 13.75 17H8.6667L5 19.75C4.17595 20.368 3 19.7801 3 18.75V16.9905C1.32189 16.8629 0 15.4608 0 13.75V6.25C0 4.5362 1.32652 3.13222 3.00881 3.00881ZM4.51772 3H13.75C15.5449 3 17 4.45507 17 6.25V12.4823C17.8481 12.361 18.5 11.6316 18.5 10.75V4.75C18.5 2.95507 17.0449 1.5 15.25 1.5H6.25C5.36838 1.5 4.63903 2.15193 4.51772 3ZM3.25 15.5H4.5V18.25L8.1667 15.5H13.75C14.7165 15.5 15.5 14.7165 15.5 13.75V6.25C15.5 5.2835 14.7165 4.5 13.75 4.5H3.25C2.2835 4.5 1.5 5.2835 1.5 6.25V13.75C1.5 14.7165 2.2835 15.5 3.25 15.5Z" fill="#212121"/>
</svg>