<svg xmlns="http://www.w3.org/2000/svg"  viewBox="0 0 50 50" fill="none">
<path d="M9.38913 12.5163C7.50258 13.7143 6.25 15.8254 6.25 18.2292V31.7708C6.25 37.8115 11.1469 42.7083 17.1875 42.7083H30.7292C33.1329 42.7083 35.2442 41.4558 36.4456 39.5677L36.191 39.5796L35.9375 39.5833H17.1875C12.8728 39.5833 9.375 36.0856 9.375 31.7708V13.0208C9.375 12.8515 9.37975 12.6833 9.38913 12.5163ZM26.189 25.3106L25.9946 25.4733L14.7559 36.5425C15.7714 37.1504 16.9595 37.5 18.2292 37.5H35.9375C37.2315 37.5 38.4406 37.1371 39.4688 36.5075L28.1833 25.4696L28.0087 25.3221C27.5358 24.9777 26.9137 24.9321 26.401 25.1842L26.189 25.3106ZM18.2292 6.25C14.4897 6.25 11.4583 9.2814 11.4583 13.0208V30.7292C11.4583 32.0658 11.8456 33.3119 12.5141 34.3615L23.8019 23.2467L24.0692 23.0027C25.8015 21.5394 28.344 21.5308 30.0856 22.9802L30.3683 23.2354L41.6871 34.3069C42.3344 33.2687 42.7083 32.0427 42.7083 30.7292V13.0208C42.7083 9.2814 39.6769 6.25 35.9375 6.25H18.2292ZM19.7907 11.9816C21.2281 11.9816 22.3933 13.1468 22.3933 14.5843C22.3933 16.0217 21.2281 17.187 19.7907 17.187C18.3533 17.187 17.188 16.0217 17.188 14.5843C17.188 13.1468 18.3533 11.9816 19.7907 11.9816Z" fill="#FF8E1D"/>
</svg>
