<svg width="36" height="36" viewBox="0 0 36 36" fill="none" xmlns="http://www.w3.org/2000/svg">
<g id="Frame">
<path id="Vector" d="M24 9V10.5H25.125C27.8174 10.5 30 12.6826 30 15.375V26.625C30 29.3174 27.8174 31.5 25.125 31.5H10.875C8.18261 31.5 6 29.3174 6 26.625V15.375C6 12.6826 8.18261 10.5 10.875 10.5H12V9C12 5.68629 14.6863 3 18 3C21.3137 3 24 5.68629 24 9ZM14.25 9V10.5H21.75V9C21.75 6.92894 20.071 5.25 18 5.25C15.929 5.25 14.25 6.92894 14.25 9ZM18 23.25C19.2426 23.25 20.25 22.2426 20.25 21C20.25 19.7574 19.2426 18.75 18 18.75C16.7574 18.75 15.75 19.7574 15.75 21C15.75 22.2426 16.7574 23.25 18 23.25Z" fill="#212121"/>
</g>
</svg>
