<svg width="39" height="12" viewBox="0 0 39 12" fill="none" xmlns="http://www.w3.org/2000/svg">
<g id="Group">
<path id="Vector" d="M1.65837 10.987H0.5V0.838135H1.74525V4.4544C2.26652 3.78364 2.93258 3.46285 3.74344 3.46285C4.20679 3.46285 4.61222 3.55034 5.01765 3.72532C5.42308 3.9003 5.74163 4.16277 6.00226 4.48357C6.2629 4.80436 6.46561 5.21266 6.61041 5.67927C6.7552 6.14589 6.84208 6.64166 6.84208 7.16661C6.84208 8.42064 6.52353 9.41219 5.91538 10.083C5.30724 10.7829 4.5543 11.1037 3.68552 11.1037C2.81674 11.1037 2.15068 10.7537 1.65837 10.0246V10.987ZM1.62941 7.2541C1.62941 8.129 1.74525 8.7706 1.97692 9.14972C2.35339 9.79132 2.90362 10.1121 3.56968 10.1121C4.11991 10.1121 4.58326 9.87881 4.95973 9.41219C5.36516 8.94558 5.53891 8.24566 5.53891 7.31242C5.53891 6.35003 5.3362 5.65011 4.95973 5.18349C4.58326 4.71687 4.11991 4.51273 3.59864 4.51273C3.04842 4.51273 2.58507 4.74604 2.2086 5.21265C1.83213 5.65011 1.62941 6.35003 1.62941 7.2541Z" fill="#EC1D7F"/>
<path id="Vector_2" d="M8.43481 10.987V0.838135H9.76694V5.85425L14.7769 0.838135H16.5724L12.3443 4.95018L16.7751 10.987H15.0086L11.4176 5.82509L9.76694 7.45824V10.987H8.43481Z" fill="black"/>
<path id="Vector_3" d="M22.4801 10.0538C22.0167 10.433 21.5824 10.7246 21.148 10.8704C20.7136 11.0454 20.2792 11.1037 19.7869 11.1037C18.976 11.1037 18.3679 10.8996 17.9335 10.5205C17.4991 10.1413 17.2964 9.64555 17.2964 9.03311C17.2964 8.68315 17.3833 8.33319 17.5281 8.04156C17.7018 7.74992 17.9045 7.51661 18.1652 7.31247C18.4258 7.13749 18.7154 6.99167 19.0629 6.90418C19.2946 6.84585 19.671 6.78753 20.1634 6.7292C21.148 6.61255 21.9009 6.46673 22.3643 6.29175C22.3643 6.11677 22.3643 6.00011 22.3643 5.97095C22.3643 5.47517 22.2484 5.09605 22.0167 4.8919C21.6982 4.60027 21.2348 4.48361 20.5977 4.48361C20.0186 4.48361 19.5842 4.60027 19.3235 4.80441C19.0339 5.00856 18.8312 5.35852 18.7154 5.88346L17.4991 5.70848C17.6149 5.18354 17.7887 4.77525 18.0493 4.45445C18.31 4.13365 18.6575 3.90034 19.1498 3.72536C19.6421 3.55038 20.1923 3.46289 20.8005 3.46289C21.4376 3.46289 21.9299 3.55038 22.3063 3.6962C22.6828 3.84202 22.9724 4.017 23.1751 4.25031C23.3489 4.48361 23.4937 4.74608 23.5516 5.09605C23.5805 5.30019 23.6095 5.67931 23.6095 6.23342V7.89574C23.6095 9.06228 23.6385 9.79136 23.6964 10.083C23.7543 10.3746 23.8412 10.6954 24.0149 10.9579H22.7118C22.5959 10.7246 22.5091 10.4038 22.4801 10.0538ZM22.3932 7.28331C21.9588 7.45829 21.2638 7.63327 20.3661 7.74992C19.8448 7.83741 19.4973 7.89574 19.2946 8.01239C19.0919 8.12905 18.9181 8.2457 18.8023 8.42068C18.6864 8.59566 18.6285 8.79981 18.6285 9.00395C18.6285 9.32475 18.7444 9.61638 19.005 9.82053C19.2656 10.0538 19.6131 10.1413 20.1054 10.1413C20.5688 10.1413 21.0032 10.0247 21.3796 9.82053C21.7561 9.61638 22.0167 9.32475 22.1905 8.94562C22.3353 8.65399 22.3932 8.2457 22.3932 7.69159V7.28331Z" fill="black"/>
<path id="Vector_4" d="M25.0575 8.77064L26.2738 8.5665C26.3317 9.06228 26.5344 9.4414 26.853 9.70387C27.1715 9.96634 27.6059 10.1122 28.1561 10.1122C28.7353 10.1122 29.1408 9.99551 29.4303 9.7622C29.7199 9.52889 29.8358 9.26642 29.8358 8.94562C29.8358 8.65399 29.7199 8.44984 29.4593 8.27486C29.2855 8.15821 28.8801 8.01239 28.1851 7.86658C27.2874 7.63327 26.6503 7.42912 26.3027 7.25414C25.9552 7.07916 25.6946 6.84585 25.4919 6.55422C25.3181 6.26259 25.2313 5.94179 25.2313 5.56266C25.2313 5.24186 25.3181 4.92107 25.4629 4.65859C25.6077 4.36696 25.8104 4.13365 26.0711 3.95867C26.2738 3.81285 26.5344 3.6962 26.853 3.60871C27.1715 3.52122 27.548 3.46289 27.9245 3.46289C28.5036 3.46289 28.996 3.55038 29.4303 3.72536C29.8647 3.90034 30.1833 4.10449 30.386 4.39612C30.5887 4.68776 30.7335 5.06688 30.8204 5.5335L29.6041 5.70848C29.5462 5.32935 29.4014 5.03772 29.1408 4.83357C28.8801 4.62943 28.5036 4.51278 28.0113 4.51278C27.4322 4.51278 27.0267 4.60027 26.7951 4.80441C26.5634 4.97939 26.4186 5.2127 26.4186 5.47517C26.4186 5.65015 26.4765 5.79597 26.5634 5.91262C26.6503 6.05844 26.824 6.14593 27.0267 6.23342C27.1426 6.29175 27.519 6.37924 28.1272 6.55422C28.996 6.78753 29.6041 6.99167 29.9516 7.13749C30.2991 7.28331 30.5598 7.51661 30.7625 7.77908C30.9652 8.07072 31.0521 8.42068 31.0521 8.85813C31.0521 9.26642 30.9362 9.67471 30.7046 10.0247C30.4729 10.4038 30.1254 10.6663 29.662 10.8704C29.1987 11.0746 28.7064 11.162 28.1272 11.162C27.1715 11.162 26.4475 10.9579 25.9552 10.5788C25.4629 10.1997 25.2023 9.55806 25.0575 8.77064Z" fill="black"/>
<path id="Vector_5" d="M32.5869 10.987V0.838135H33.8321V4.48357C34.4113 3.81281 35.1353 3.46285 36.004 3.46285C36.5543 3.46285 37.0176 3.5795 37.4231 3.78365C37.8285 3.98779 38.1181 4.30859 38.2918 4.65855C38.4656 5.03767 38.5525 5.59178 38.5525 6.2917V10.9579H37.2783V6.32087C37.2783 5.70843 37.1335 5.24182 36.8728 4.95018C36.6122 4.65855 36.2357 4.51273 35.7434 4.51273C35.3669 4.51273 35.0194 4.60022 34.7009 4.80437C34.3823 5.00851 34.1507 5.24182 34.0059 5.59178C33.8611 5.94174 33.8031 6.37919 33.8031 6.96246V10.987H32.5869Z" fill="black"/>
</g>
</svg>
