<svg width="38" height="38" viewBox="0 0 38 38" fill="none" xmlns="http://www.w3.org/2000/svg">
<g id="Group">
<g id="Group_2">
<path id="Vector" d="M15.9878 19.5978L35.5643 18.6646L12.7733 0L15.9878 19.5978Z" fill="#EC1D7F"/>
</g>
<g id="Group_3">
<path id="Vector_2" d="M1.62396 5.7451L15.5244 20.006L12.3099 0.349854L1.62396 5.7451Z" fill="#DB1B61"/>
</g>
<g id="Group_4">
<path id="Vector_3" d="M0.55249 9.06973L11.0068 15.719L3.12987 8.19482L0.55249 9.06973Z" fill="#AA1D4D"/>
</g>
<g id="Group_5">
<g id="Group_6">
<path id="Vector_4" d="M34.9848 11.4613L37.707 9.12818L34.3187 7.58252L34.9848 11.4613Z" fill="#EC1D7F"/>
</g>
<g id="Group_7">
<path id="Vector_5" d="M36.0274 19.5686L22.8509 26.9761L35.6219 21.7559L36.0274 19.5686Z" fill="#EC1D7F"/>
</g>
<g id="Group_8">
<path id="Vector_6" d="M19.2309 28.4635L35.8535 19.1604L16.2191 20.1228L19.2309 28.4635Z" fill="#DB1B61"/>
</g>
<g id="Group_9">
<path id="Vector_7" d="M27.2527 11.3154L35.7667 18.4021L33.9423 7.66992L27.2527 11.3154Z" fill="#DB1B61"/>
</g>
<g id="Group_10">
<path id="Vector_8" d="M15.8138 20.7935L10.8038 37.9999L19.1441 30.0091L15.8138 20.7935Z" fill="#AA1D4D"/>
</g>
</g>
</g>
</svg>
