<svg width="107" height="26" viewBox="0 0 107 26" fill="none" xmlns="http://www.w3.org/2000/svg">
<g id="Group">
<path id="Vector" fill-rule="evenodd" clip-rule="evenodd" d="M9.7833 6.11206H17.0195C20.9087 6.11206 22.3672 8.09896 22.1428 11.032C21.7688 15.8763 18.8893 18.5444 15.0562 18.5444H13.1303C12.6067 18.5444 12.2515 18.9039 12.1019 19.8501L11.2792 25.3944C11.2231 25.754 11.0361 25.9621 10.7556 26H6.21195C5.78189 26 5.63231 25.6783 5.7445 24.9592L8.51183 7.19066C8.62402 6.45267 9.01668 6.11206 9.7833 6.11206Z" fill="#009EE3"/>
<path id="Vector_2" fill-rule="evenodd" clip-rule="evenodd" d="M41.2337 5.79028C43.6831 5.79028 45.9269 7.13381 45.6278 10.4832C45.2538 14.457 43.1409 16.652 39.8313 16.6709H36.9331C36.5217 16.6709 36.3161 17.0115 36.2039 17.7306L35.6429 21.3449C35.5494 21.8936 35.2877 22.1586 34.8763 22.1586H32.1838C31.7537 22.1586 31.6041 21.8747 31.6976 21.2503L33.9227 6.79319C34.0349 6.07413 34.2967 5.80921 34.7828 5.80921H41.2337V5.79028ZM36.8396 13.5297H39.046C40.411 13.473 41.3272 12.5079 41.4207 10.7859C41.4768 9.70731 40.7662 8.9504 39.6256 8.9504L37.5501 8.96932L36.8396 13.5297ZM52.9574 21.0232C53.2005 20.7961 53.4623 20.6826 53.4249 20.9664L53.3314 21.6287C53.294 21.9693 53.4249 22.1586 53.7428 22.1586H56.1361C56.5475 22.1586 56.7345 21.9882 56.828 21.3638L58.3051 11.9781C58.3799 11.505 58.2677 11.2779 57.9125 11.2779H55.276C55.0329 11.2779 54.9207 11.4104 54.8647 11.7888L54.7712 12.3754C54.7151 12.6782 54.5842 12.735 54.4533 12.4322C54.0045 11.3536 52.8639 10.8805 51.2746 10.9184C47.5724 10.9751 45.0855 13.8136 44.805 17.4468C44.5994 20.2663 46.6001 22.4802 49.2178 22.4802C51.1437 22.4802 51.9851 21.9126 52.9574 21.0232ZM50.938 19.585C49.3487 19.585 48.2455 18.2983 48.4699 16.7277C48.6943 15.1571 50.1901 13.8703 51.7795 13.8703C53.3688 13.8703 54.472 15.1571 54.2476 16.7277C54.0232 18.2983 52.5274 19.585 50.938 19.585ZM62.9984 11.259H60.5676C60.0627 11.259 59.8571 11.6374 60.0254 12.1105L63.0358 21.061L60.0627 25.3187C59.8197 25.6782 60.0067 25.9999 60.3619 25.9999H63.0919C63.5032 25.9999 63.6902 25.8864 63.8959 25.6025L73.1702 12.1294C73.4506 11.7131 73.3198 11.2779 72.8523 11.2779H70.272C69.8232 11.2779 69.6549 11.4482 69.3931 11.8267L65.5226 17.5035L63.8024 11.8078C63.7276 11.4293 63.4658 11.259 62.9984 11.259Z" fill="#113984"/>
<path id="Vector_3" fill-rule="evenodd" clip-rule="evenodd" d="M82.8558 5.79028C85.3053 5.79028 87.5491 7.13381 87.2499 10.4832C86.8759 14.457 84.763 16.652 81.4534 16.6709H78.5552C78.1439 16.6709 77.9382 17.0115 77.826 17.7306L77.2651 21.3449C77.1716 21.8936 76.9098 22.1586 76.4984 22.1586H73.8059C73.3758 22.1586 73.2262 21.8747 73.3197 21.2503L75.5448 6.79319C75.657 6.07413 75.9188 5.80921 76.4049 5.80921H82.8558V5.79028ZM78.4617 13.5297H80.6681C82.0331 13.473 82.9493 12.5079 83.0428 10.7859C83.0989 9.70731 82.3884 8.9504 81.2478 8.9504L79.1723 8.96932L78.4617 13.5297ZM94.5796 21.0232C94.8227 20.7961 95.0844 20.6826 95.047 20.9664L94.9535 21.6287C94.9161 21.9693 95.047 22.1586 95.3649 22.1586H97.7583C98.1696 22.1586 98.3566 21.9882 98.4501 21.3638L99.9272 11.9781C100.002 11.505 99.8899 11.2779 99.5346 11.2779H96.8982C96.6551 11.2779 96.5429 11.4104 96.4868 11.7888L96.3933 12.3754C96.3372 12.6782 96.2063 12.735 96.0754 12.4322C95.6267 11.3536 94.4861 10.8805 92.8967 10.9184C89.2132 10.9751 86.7076 13.8136 86.4459 17.4468C86.2402 20.2663 88.2409 22.4802 90.8586 22.4802C92.7659 22.4802 93.626 21.9126 94.5796 21.0232ZM92.5789 19.585C90.9895 19.585 89.8863 18.2983 90.1107 16.7277C90.3351 15.1571 91.8309 13.8703 93.4203 13.8703C95.0096 13.8703 96.1128 15.1571 95.8884 16.7277C95.6641 18.2983 94.1682 19.585 92.5789 19.585ZM103.629 22.1775H100.862C100.638 22.1775 100.488 22.0072 100.526 21.799L102.956 6.20659C102.994 5.99843 103.199 5.82813 103.424 5.82813H106.191C106.416 5.82813 106.565 5.99843 106.528 6.20659L104.097 21.799C104.06 22.0072 103.854 22.1775 103.629 22.1775Z" fill="#009EE3"/>
<path id="Vector_4" fill-rule="evenodd" clip-rule="evenodd" d="M5.23951 0H12.4944C14.5512 0 16.9633 0.0756914 18.59 1.51383C19.6745 2.47889 20.2355 4.01164 20.1046 5.67686C19.6558 11.278 16.3462 14.4192 11.9148 14.4192H8.32471C7.70767 14.4192 7.31501 14.8355 7.14672 15.933L6.15572 22.3668C6.09963 22.7831 5.91264 23.0291 5.59477 23.067H1.10721C0.60236 23.067 0.434076 22.6885 0.564964 21.8559L3.78105 1.21106C3.91194 0.39738 4.36069 0 5.23951 0Z" fill="#113984"/>
<path id="Vector_5" fill-rule="evenodd" clip-rule="evenodd" d="M7.24036 15.2708L8.51183 7.15294C8.62402 6.43387 9.01668 6.09326 9.76461 6.09326H17.0008C18.1975 6.09326 19.1698 6.28249 19.9364 6.6231C19.2072 11.6187 16.0285 14.3815 11.8401 14.3815H8.28745C7.82 14.4193 7.46473 14.6653 7.24036 15.2708Z" fill="#172C70"/>
</g>
</svg>
