<svg width="60" height="20" viewBox="0 0 60 20" fill="none" xmlns="http://www.w3.org/2000/svg">
<g id="Group">
<g id="Group_2">
<path id="Vector" d="M26.2753 18.6564H21.4781L24.4949 0.294678H29.2921L26.2753 18.6564Z" fill="#0066B3"/>
<path id="Vector_2" d="M17.4228 0.294457L12.8235 12.912L12.2795 10.2118L10.6475 1.91461C10.6475 1.91461 10.4496 0.245361 8.37252 0.245361H0.805881L0.70697 0.589031C0.70697 0.589031 3.03136 1.07999 5.7514 2.70014L9.95508 18.6562H14.9501L22.6156 0.294457H17.4228Z" fill="#0066B3"/>
<path id="Vector_3" d="M55.256 18.6564H59.6575L55.8 0.294678H51.9425C50.1621 0.294678 49.717 1.66935 49.717 1.66935L42.5955 18.6564H47.5904L48.5795 15.9071H54.712L55.256 18.6564ZM49.9643 12.1267L52.4865 5.25333L53.9207 12.1267H49.9643Z" fill="#0066B3"/>
<path id="Vector_4" d="M42.9417 4.71318L43.6341 0.78553C43.6341 0.78553 41.5075 0 39.282 0C36.9082 0 31.2208 1.03101 31.2208 6.08785C31.2208 10.8501 37.8973 10.8992 37.8973 13.4031C37.8973 15.907 31.9132 15.4651 29.935 13.8941L29.2426 18.0181C29.2426 18.0181 31.3692 19.0491 34.6827 19.0491C37.9467 19.0491 42.9417 17.3798 42.9417 12.7649C42.9417 8.00258 36.2158 7.56072 36.2158 5.44961C36.2158 3.28941 40.914 3.58398 42.9417 4.71318Z" fill="#0066B3"/>
</g>
<path id="Vector_5" d="M12.2795 10.1627L10.6475 1.91461C10.6475 1.91461 10.4496 0.245361 8.37252 0.245361H0.805881L0.70697 0.589031C0.70697 0.589031 4.36665 1.32546 7.82851 4.17301C11.1915 6.82417 12.2795 10.1627 12.2795 10.1627Z" fill="#FAA634"/>
</g>
</svg>
